# xmcd
#
# Track frame offsets:
#	150
#	10823
#	22890
#	35863
#	50625
#	65328
#	80772
#	94904
#	106764
#	117243
#	135560
#	145863
#	158199
#	167441
#
# Disc length: 2398 seconds
#
# Revision: 2
# Processed by: cddbd v1.5.2PL0 Copyright (c) Steve Scherf et al.
# Submitted via: audiograbber 1.83.01
#
DISCID=b4095c0e
DTITLE=Concurso de marchinhas - As melhores marchinhas do carnaval 2007
DYEAR=1900
DGENRE=Marchinhas
TTITLE0=João Cavalcanti - Marcha da Descompostura
TTITLE1=Soraya Ravenle - Pra Carmen
TTITLE2=Alfredo Del Penho - Salão da Ilusão
TTITLE3=Homero Ferreira - Falso Arlequim
TTITLE4=Moyséis Marques e Elza Maria - Canguru Perneta
TTITLE5=Eduardo Dusek - Tapa na Pantera
TTITLE6=Pedro Miranda - Espírito de Carnaval
TTITLE7=Laura Vieira - Quero Paz
TTITLE8=Alê Muniz e Luciana Simões - Só Depois do Carnaval
TTITLE9=Pedro Paulo Malta - Velho Palhaço
TTITLE10=Homero Ferreira - Milagre do Viagra
TTITLE11=Bianca Leão - Bloco do Penico
TTITLE12=Eduardo Dusek - Ô Pitanguy
TTITLE13=João Cavalcanti - Suco de Luz
EXTD=
EXTT0=
EXTT1=
EXTT2=
EXTT3=
EXTT4=
EXTT5=
EXTT6=
EXTT7=
EXTT8=
EXTT9=
EXTT10=
EXTT11=
EXTT12=
EXTT13=
PLAYORDER=
